<svg width="22" height="22" viewBox="0 0 22 22" fill="none" xmlns="http://www.w3.org/2000/svg">
<path d="M18.8333 17.3636H4.5V3.18182C4.5 3.08182 4.425 3 4.33333 3H3.16667C3.075 3 3 3.08182 3 3.18182V18.8182C3 18.9182 3.075 19 3.16667 19H18.8333C18.925 19 19 18.9182 19 18.8182V17.5455C19 17.4455 18.925 17.3636 18.8333 17.3636ZM6.33333 15.5455H7.5C7.59167 15.5455 7.66667 15.4636 7.66667 15.3636V12.0909C7.66667 11.9909 7.59167 11.9091 7.5 11.9091H6.33333C6.24167 11.9091 6.16667 11.9909 6.16667 12.0909V15.3636C6.16667 15.4636 6.24167 15.5455 6.33333 15.5455ZM9.5 15.5455H10.6667C10.7583 15.5455 10.8333 15.4636 10.8333 15.3636V8.09091C10.8333 7.99091 10.7583 7.90909 10.6667 7.90909H9.5C9.40833 7.90909 9.33333 7.99091 9.33333 8.09091V15.3636C9.33333 15.4636 9.40833 15.5455 9.5 15.5455ZM12.6667 15.5455H13.8333C13.925 15.5455 14 15.4636 14 15.3636V9.86364C14 9.76364 13.925 9.68182 13.8333 9.68182H12.6667C12.575 9.68182 12.5 9.76364 12.5 9.86364V15.3636C12.5 15.4636 12.575 15.5455 12.6667 15.5455ZM15.8333 15.5455H17C17.0917 15.5455 17.1667 15.4636 17.1667 15.3636V6.27273C17.1667 6.17273 17.0917 6.09091 17 6.09091H15.8333C15.7417 6.09091 15.6667 6.17273 15.6667 6.27273V15.3636C15.6667 15.4636 15.7417 15.5455 15.8333 15.5455Z" fill="black"/>
</svg>
