<svg width="22" height="22" viewBox="0 0 22 22" fill="none" xmlns="http://www.w3.org/2000/svg">
<path fill-rule="evenodd" clip-rule="evenodd" d="M10.9 3.77765C6.80867 3.77765 3.78 6.50901 3.78 9.55501C3.78 11.3451 4.79549 12.9965 6.48738 14.0845C7.1442 14.5075 7.32309 15.3315 7.35246 16.0594C8.02263 15.7839 8.47208 15.0284 9.28554 15.1831C9.80471 15.2814 10.3429 15.3312 10.9 15.3324C14.9913 15.3324 18.02 12.601 18.02 9.55501C18.02 6.50901 14.9913 3.77765 10.9 3.77765ZM2 9.55501C2 5.23799 6.14384 2 10.9 2C15.6562 2 19.8 5.23799 19.8 9.55501C19.8 13.872 15.6562 17.11 10.9 17.11C10.3179 17.1094 9.75101 17.0635 9.19921 16.9723C9.11644 17.0371 8.97404 17.1545 8.79871 17.278C8.2923 17.6344 7.56161 17.9988 6.45 17.9988C6.21396 17.9988 5.98758 17.9052 5.82068 17.7385C5.65377 17.5718 5.56 17.3458 5.56 17.11C5.56 16.6212 5.68727 16.0132 5.47634 15.5492C3.40353 14.1973 2 12.0419 2 9.55501Z" fill="black"/>
</svg>
