<svg width="30" height="30" viewBox="0 0 30 30" fill="none" xmlns="http://www.w3.org/2000/svg">
<g clip-path="url(#clip0_2011_2)">
<path d="M18.1075 3.92874C18.4266 4.01848 18.6969 4.23125 18.8591 4.52027C19.0213 4.80929 19.0621 5.1509 18.9725 5.46999L13.435 25.205C13.3907 25.3631 13.3157 25.5109 13.2142 25.64C13.1128 25.769 12.9869 25.8769 12.8438 25.9573C12.7007 26.0378 12.5431 26.0892 12.3801 26.1088C12.2171 26.1283 12.0518 26.1156 11.8938 26.0712C11.7357 26.0269 11.5879 25.9519 11.4588 25.8505C11.3297 25.749 11.2219 25.6231 11.1414 25.48C11.061 25.3369 11.0095 25.1793 10.99 25.0163C10.9704 24.8533 10.9832 24.6881 11.0275 24.53L16.565 4.79499C16.6093 4.63676 16.6844 4.48882 16.7859 4.35963C16.8874 4.23043 17.0134 4.12252 17.1567 4.04206C17.2999 3.96161 17.4577 3.91019 17.6208 3.89074C17.784 3.8713 17.9494 3.88421 18.1075 3.92874ZM9.00877 8.81249C9.2431 9.0469 9.37475 9.36479 9.37475 9.69624C9.37475 10.0277 9.2431 10.3456 9.00877 10.58L4.59002 15L9.00877 19.4187C9.1249 19.5348 9.21705 19.6726 9.27993 19.8243C9.34282 19.9759 9.37521 20.1385 9.37527 20.3027C9.37533 20.4669 9.34305 20.6294 9.28027 20.7812C9.21749 20.9329 9.12545 21.0707 9.00939 21.1869C8.89334 21.303 8.75554 21.3951 8.60388 21.458C8.45221 21.5209 8.28964 21.5533 8.12546 21.5534C7.96127 21.5534 7.79868 21.5211 7.64697 21.4584C7.49526 21.3956 7.3574 21.3035 7.24127 21.1875L1.93752 15.8837C1.70318 15.6493 1.57153 15.3314 1.57153 15C1.57153 14.6685 1.70318 14.3507 1.93752 14.1162L7.24127 8.81249C7.47568 8.57815 7.79356 8.44651 8.12502 8.44651C8.45647 8.44651 8.77436 8.57815 9.00877 8.81249ZM20.9913 10.58C20.8719 10.4647 20.7767 10.3268 20.7111 10.1742C20.6456 10.0217 20.6111 9.85772 20.6097 9.69174C20.6083 9.52577 20.6399 9.36117 20.7027 9.20755C20.7656 9.05393 20.8584 8.91436 20.9758 8.797C21.0931 8.67963 21.2327 8.58681 21.3863 8.52396C21.5399 8.46111 21.7045 8.42949 21.8705 8.43093C22.0365 8.43237 22.2005 8.46685 22.353 8.53236C22.5055 8.59788 22.6435 8.6931 22.7588 8.81249L28.0625 14.1162C28.2969 14.3507 28.4285 14.6685 28.4285 15C28.4285 15.3314 28.2969 15.6493 28.0625 15.8837L22.7588 21.1875C22.5242 21.4219 22.2062 21.5535 21.8746 21.5534C21.543 21.5533 21.225 21.4214 20.9906 21.1869C20.7563 20.9523 20.6246 20.6343 20.6248 20.3027C20.6249 19.9711 20.7567 19.6531 20.9913 19.4187L25.41 15L20.9913 10.58Z" fill="white"/>
</g>
<defs>
<clipPath id="clip0_2011_2">
<rect width="30" height="30" fill="white"/>
</clipPath>
</defs>
</svg>
