<svg width="22" height="22" viewBox="0 0 22 22" fill="none" xmlns="http://www.w3.org/2000/svg">
<path d="M19.5 18.75C19.5 17.037 17.8764 15.5807 15.6111 15.0399M13.6667 18.75C13.6667 16.5768 11.0553 14.8167 7.83333 14.8167C4.61139 14.8167 2 16.5768 2 18.75M13.6667 11.8667C14.6981 11.8667 15.6872 11.4523 16.4165 10.7146C17.1458 9.97698 17.5556 8.97652 17.5556 7.93333C17.5556 6.89015 17.1458 5.88969 16.4165 5.15205C15.6872 4.4144 14.6981 4 13.6667 4M7.83333 11.8667C6.80194 11.8667 5.81278 11.4523 5.08347 10.7146C4.35417 9.97698 3.94444 8.97652 3.94444 7.93333C3.94444 6.89015 4.35417 5.88969 5.08347 5.15205C5.81278 4.4144 6.80194 4 7.83333 4C8.86473 4 9.85388 4.4144 10.5832 5.15205C11.3125 5.88969 11.7222 6.89015 11.7222 7.93333C11.7222 8.97652 11.3125 9.97698 10.5832 10.7146C9.85388 11.4523 8.86473 11.8667 7.83333 11.8667Z" stroke="black" stroke-width="1.5" stroke-linecap="round" stroke-linejoin="round"/>
</svg>
