<svg width="22" height="22" viewBox="0 0 22 22" fill="none" xmlns="http://www.w3.org/2000/svg">
<path d="M10.75 7.199C15.0302 7.199 18.5 6.03516 18.5 4.5995C18.5 3.16384 15.0302 2 10.75 2C6.46979 2 3 3.16384 3 4.5995C3 6.03516 6.46979 7.199 10.75 7.199Z" stroke="black" stroke-width="1.5" stroke-linecap="round" stroke-linejoin="round"/>
<path d="M3 4.59961V16.7306C3 17.42 3.81652 18.0812 5.26992 18.5687C6.72333 19.0562 8.69457 19.3301 10.75 19.3301C12.8054 19.3301 14.7767 19.0562 16.2301 18.5687C17.6835 18.0812 18.5 17.42 18.5 16.7306V4.59961" stroke="black" stroke-width="1.5" stroke-linecap="round" stroke-linejoin="round"/>
<path d="M3 10.665C3 11.3545 3.81652 12.0157 5.26992 12.5032C6.72333 12.9907 8.69457 13.2645 10.75 13.2645C12.8054 13.2645 14.7767 12.9907 16.2301 12.5032C17.6835 12.0157 18.5 11.3545 18.5 10.665" stroke="black" stroke-width="1.5" stroke-linecap="round" stroke-linejoin="round"/>
</svg>
