<svg width="22" height="22" viewBox="0 0 22 22" fill="none" xmlns="http://www.w3.org/2000/svg">
<path d="M18.3334 17.4167V9.62504C18.3334 9.48273 18.3003 9.34238 18.2366 9.2151C18.173 9.08781 18.0806 8.97709 17.9667 8.89171L11.5501 4.07921C11.3914 3.9602 11.1984 3.89587 11.0001 3.89587C10.8017 3.89587 10.6088 3.9602 10.4501 4.07921L4.03341 8.89171C3.91957 8.97709 3.82717 9.08781 3.76352 9.2151C3.69988 9.34238 3.66675 9.48273 3.66675 9.62504V17.4167C3.66675 17.6598 3.76333 17.893 3.93523 18.0649C4.10714 18.2368 4.3403 18.3334 4.58341 18.3334H8.25008C8.4932 18.3334 8.72635 18.2368 8.89826 18.0649C9.07017 17.893 9.16675 17.6598 9.16675 17.4167V14.6667C9.16675 14.4236 9.26333 14.1904 9.43523 14.0185C9.60714 13.8466 9.8403 13.75 10.0834 13.75H11.9167C12.1599 13.75 12.393 13.8466 12.5649 14.0185C12.7368 14.1904 12.8334 14.4236 12.8334 14.6667V17.4167C12.8334 17.6598 12.93 17.893 13.1019 18.0649C13.2738 18.2368 13.507 18.3334 13.7501 18.3334H17.4167C17.6599 18.3334 17.893 18.2368 18.0649 18.0649C18.2368 17.893 18.3334 17.6598 18.3334 17.4167Z" stroke="black" stroke-width="1.5" stroke-linecap="round" stroke-linejoin="round"/>
</svg>
