<svg width="22" height="22" viewBox="0 0 22 22" fill="none" xmlns="http://www.w3.org/2000/svg">
<path d="M18.5176 7.89405L18.1881 7.70471L18.0864 7.64531C17.8409 7.49345 17.6341 7.28345 17.4832 7.03272C17.4669 7.00766 17.4525 6.98075 17.4237 6.92877C17.2296 6.60756 17.1354 6.23287 17.1536 5.8549L17.159 5.46043C17.1698 4.82929 17.1752 4.51186 17.0888 4.22784C17.0123 3.97515 16.8843 3.74223 16.7134 3.54472C16.5207 3.32197 16.2533 3.16232 15.7176 2.84489L15.2728 2.58037C14.7398 2.26387 14.4724 2.10516 14.1888 2.04483C13.9383 1.99137 13.6795 1.99359 13.4299 2.05132C13.1481 2.11629 12.8843 2.27965 12.3576 2.6045L12.3549 2.60636L12.0361 2.8022C11.9857 2.83376 11.9596 2.84861 11.9344 2.86346C11.6841 3.00732 11.405 3.08621 11.1178 3.0955C11.089 3.09735 11.0593 3.09735 11.0008 3.09735L10.8837 3.09642C10.5964 3.08699 10.3155 3.00679 10.0644 2.86253C10.0392 2.84861 10.0149 2.83283 9.96449 2.80127L9.64307 2.60265C9.11277 2.27408 8.84718 2.11072 8.56357 2.04483C8.31297 1.987 8.05326 1.9851 7.80189 2.03926C7.51739 2.10051 7.25089 2.26016 6.71699 2.57944L6.71429 2.58037L6.27493 2.84304L6.27043 2.84675C5.74103 3.16232 5.47544 3.32197 5.28456 3.54379C5.11447 3.74093 4.9871 3.97318 4.91093 4.22506C4.8254 4.51 4.8299 4.82743 4.8407 5.46229L4.847 5.85583C4.847 5.91616 4.84971 5.94586 4.8488 5.97463C4.84414 6.31185 4.75045 6.64138 4.5778 6.92784C4.54809 6.97982 4.53459 7.00581 4.51928 7.02994C4.36748 7.28256 4.15906 7.49391 3.91156 7.64623L3.81072 7.70471L3.4857 7.89034C2.9437 8.19941 2.6727 8.35442 2.47643 8.57532C2.30193 8.77007 2.16992 9.00111 2.08929 9.25287C1.99926 9.53781 1.99926 9.85617 2.00016 10.4947L2.00196 11.0173C2.00286 11.6512 2.00466 11.9677 2.09559 12.2508C2.17589 12.501 2.30694 12.7307 2.48003 12.9246C2.67631 13.1437 2.9446 13.2978 3.4821 13.6059L3.80442 13.7906C3.85934 13.8222 3.88725 13.837 3.91336 13.8537C4.1955 14.0281 4.42592 14.2788 4.57961 14.5786L4.63993 14.69C4.792 14.986 4.86356 15.3189 4.847 15.6534L4.8407 16.0312C4.8299 16.6679 4.8254 16.9872 4.91183 17.2721C4.98836 17.5246 5.1162 17.7575 5.28727 17.9552C5.47994 18.178 5.74824 18.3367 6.28303 18.6551L6.7278 18.9196C7.26169 19.2361 7.52819 19.3948 7.81179 19.4551C8.06236 19.5086 8.3211 19.5064 8.57077 19.4486C8.85348 19.3837 9.11728 19.2203 9.64577 18.8936L9.96449 18.6968L10.0662 18.6356C10.3165 18.4926 10.5956 18.4128 10.8828 18.4035L10.9999 18.4026H11.1169C11.4032 18.4119 11.6841 18.4926 11.9362 18.6365L12.019 18.6876L12.3576 18.8973C12.8888 19.2259 13.1535 19.3892 13.4371 19.4542C13.6875 19.5126 13.9472 19.5152 14.1987 19.4616C14.4824 19.4004 14.7506 19.2398 15.2845 18.9205L15.7302 18.6541C16.2596 18.3367 16.5252 18.178 16.7161 17.9562C16.8871 17.7585 17.0132 17.5264 17.0897 17.2749C17.1752 16.9918 17.1707 16.6772 17.1599 16.0516L17.1527 15.6432V15.5253C17.157 15.1879 17.2503 14.858 17.4228 14.5712L17.4814 14.4691C17.6332 14.2165 17.8416 14.0051 18.0891 13.8528L18.1881 13.7962L18.1899 13.7953L18.5149 13.6096C19.0569 13.2996 19.3279 13.1455 19.5251 12.9246C19.6998 12.7297 19.8312 12.4977 19.9113 12.2471C20.0014 11.964 20.0014 11.6466 19.9996 11.0154L19.9978 10.4827C19.9969 9.84874 19.996 9.53131 19.905 9.24823C19.8244 8.99828 19.693 8.76889 19.5197 8.57532C19.3243 8.35627 19.056 8.2022 18.5194 7.89498L18.5176 7.89405Z" stroke="black" stroke-width="1.5" stroke-linecap="round" stroke-linejoin="round"/>
<path d="M7.39868 10.75C7.39868 11.7346 7.77811 12.6789 8.45349 13.3752C9.12886 14.0714 10.0449 14.4626 11 14.4626C11.9551 14.4626 12.8711 14.0714 13.5465 13.3752C14.2219 12.6789 14.6013 11.7346 14.6013 10.75C14.6013 9.76532 14.2219 8.821 13.5465 8.12475C12.8711 7.4285 11.9551 7.03735 11 7.03735C10.0449 7.03735 9.12886 7.4285 8.45349 8.12475C7.77811 8.821 7.39868 9.76532 7.39868 10.75Z" stroke="black" stroke-width="1.5" stroke-linecap="round" stroke-linejoin="round"/>
</svg>
