<svg width="30" height="30" viewBox="0 0 30 30" fill="none" xmlns="http://www.w3.org/2000/svg">
<path d="M18.625 6.37498C18.625 6.37498 18.375 6.44998 17.95 6.58748C17.875 6.36248 17.775 6.07498 17.625 5.79998C17.15 4.88748 16.45 4.41248 15.6 4.39998C15.5375 4.39998 15.4875 4.39998 15.425 4.41248C15.4 4.38748 15.375 4.34998 15.35 4.32498C14.9875 3.92498 14.5125 3.73748 13.95 3.74998C12.8625 3.78748 11.775 4.57498 10.8875 5.97498C10.2625 6.96248 9.8 8.19998 9.6625 9.14998C8.4125 9.53748 7.5375 9.81247 7.5125 9.81247C6.875 10.0125 6.8625 10.0375 6.775 10.625C6.7125 11.075 5.0625 23.875 5.0625 23.875L18.7875 26.25V6.34998C18.725 6.34998 18.6625 6.36248 18.625 6.37498ZM15.45 7.36248C14.725 7.58748 13.925 7.83748 13.1375 8.07498C13.3625 7.21248 13.7875 6.36248 14.3125 5.79998C14.5125 5.58748 14.775 5.36248 15.1 5.22498C15.4 5.86248 15.4625 6.74998 15.45 7.36248ZM13.9625 4.47498C14.2125 4.47498 14.4375 4.52498 14.625 4.64998C14.325 4.79998 14.05 5.02498 13.775 5.31248C13.0875 6.04998 12.55 7.21248 12.3375 8.32498C11.675 8.52498 11.0375 8.72498 10.4375 8.91248C10.8125 7.14998 12.2875 4.52498 13.9625 4.47498ZM11.8375 14.4625C11.9125 15.625 14.9875 15.8875 15.1625 18.625C15.3 20.775 14.025 22.25 12.175 22.3625C9.975 22.5 8.75 21.2 8.75 21.2L9.2125 19.2125C9.2125 19.2125 10.4375 20.1375 11.4125 20.075C12.05 20.0375 12.275 19.5125 12.2625 19.15C12.1625 17.625 9.6625 17.7125 9.5125 15.2125C9.375 13.1 10.7625 10.975 13.8125 10.775C15 10.7 15.6 11 15.6 11L14.9 13.6125C14.9 13.6125 14.125 13.2625 13.2 13.3125C11.85 13.4 11.825 14.25 11.8375 14.4625ZM16.175 7.13748C16.1625 6.58748 16.1 5.81248 15.8375 5.14998C16.6625 5.31248 17.075 6.23748 17.25 6.79998C16.9375 6.89998 16.575 7.01248 16.175 7.13748ZM19.2375 26.2L24.9375 24.7875C24.9375 24.7875 22.4875 8.21248 22.475 8.09998C22.4625 7.98748 22.3625 7.92498 22.275 7.91248C22.1875 7.89998 20.5875 7.87498 20.5875 7.87498C20.5875 7.87498 19.6125 6.92498 19.2375 6.56248V26.2Z" fill="white"/>
</svg>
